<svg width="32" height="32" viewBox="0 0 32 32" fill="none" xmlns="http://www.w3.org/2000/svg">
<rect width="32" height="32" fill="#D9D9D9"/>
<circle cx="16.0122" cy="16.0122" r="10.5" transform="rotate(-11.7678 16.0122 16.0122)" fill="#2C2C2C" stroke="#2C2C2C"/>
<path d="M32 13C32 19.0751 26.9163 24 20.6452 24C14.3741 24 10 19.0751 10 13C10 6.92487 14.3741 2 20.6452 2C26.9163 2 32 6.92487 32 13Z" fill="#D9D9D9"/>
<path d="M19 8.61803L19.8716 11.3004L19.9838 11.6459H20.3471H23.1675L20.8857 13.3037L20.5918 13.5172L20.7041 13.8627L21.5757 16.5451L19.2939 14.8873L19 14.6738L18.7061 14.8873L16.4243 16.5451L17.2959 13.8627L17.4082 13.5172L17.1143 13.3037L14.8325 11.6459H17.6529H18.0162L18.1284 11.3004L19 8.61803Z" fill="#3D3D3D" stroke="#3D3D3D"/>
</svg>
