<svg width="32" height="32" viewBox="0 0 32 32" fill="none" xmlns="http://www.w3.org/2000/svg">
<rect width="32" height="32" fill="#D9D9D9"/>
<circle cx="16" cy="16" r="7.3" fill="#DCDCDC" stroke="black"/>
<path d="M16.5 3C16.5 2.72386 16.2761 2.5 16 2.5C15.7239 2.5 15.5 2.72386 15.5 3H16.5ZM16.5 6.9V3H15.5V6.9H16.5Z" fill="black"/>
<path d="M3 15.5C2.72386 15.5 2.5 15.7239 2.5 16C2.5 16.2761 2.72386 16.5 3 16.5V15.5ZM6.9 15.5H3V16.5H6.9V15.5Z" fill="black"/>
<path d="M15.5 29C15.5 29.2761 15.7239 29.5 16 29.5C16.2761 29.5 16.5 29.2761 16.5 29H15.5ZM15.5 25.1V29H16.5V25.1H15.5Z" fill="black"/>
<path d="M29 16.5C29.2761 16.5 29.5 16.2761 29.5 16C29.5 15.7239 29.2761 15.5 29 15.5V16.5ZM25.1 16.5H29V15.5H25.1V16.5Z" fill="black"/>
<path d="M6.82023 6.11312C6.62497 5.91786 6.30838 5.91786 6.11312 6.11312C5.91786 6.30838 5.91786 6.62497 6.11312 6.82023L6.82023 6.11312ZM9.42023 8.71312L6.82023 6.11312L6.11312 6.82023L8.71312 9.42023L9.42023 8.71312Z" fill="black"/>
<path d="M25.0202 6.82023C25.2155 6.62497 25.2155 6.30838 25.0202 6.11312C24.825 5.91786 24.5084 5.91786 24.3131 6.11312L25.0202 6.82023ZM22.4202 9.42023L25.0202 6.82023L24.3131 6.11312L21.7131 8.71312L22.4202 9.42023Z" fill="black"/>
<path d="M24.3131 25.8869C24.5084 26.0821 24.825 26.0821 25.0202 25.8869C25.2155 25.6916 25.2155 25.375 25.0202 25.1798L24.3131 25.8869ZM21.7131 23.2869L24.3131 25.8869L25.0202 25.1798L22.4202 22.5798L21.7131 23.2869Z" fill="black"/>
<path d="M6.11312 24.3131C5.91786 24.5084 5.91786 24.8249 6.11312 25.0202C6.30838 25.2155 6.62497 25.2155 6.82023 25.0202L6.11312 24.3131ZM8.71312 21.7131L6.11312 24.3131L6.82023 25.0202L9.42023 22.4202L8.71312 21.7131Z" fill="black"/>
</svg>
